PathFileType	4	(X/Y/Z)	C:\Users\WrightLab\Desktop\Jo\P3_26.trc
DataRate	CameraRate	NumFrames	NumMarkers	Units	OrigDataRate	OrigDataStartFrame	OrigNumFrames
100.00	100.00	       22	19	mm	100.00	160	       638
Frame#	Time	Headset_Front			Headset_Back			Headset_Left			Headset_Right			Left_Shoulder			Right_Shoulder			Sternum			C7			Left Elbow			Right Elbow			Left Wrist			Right Wrist			Left ASIS			Right ASIS			S2			Left Knee			Right Knee			Left Ankle			Right Ankle			
		X1	Y1	Z1	X2	Y2	Z2	X3	Y3	Z3	X4	Y4	Z4	X5	Y5	Z5	X6	Y6	Z6	X7	Y7	Z7	X8	Y8	Z8	X9	Y9	Z9	X10	Y10	Z10	X11	Y11	Z11	X12	Y12	Z12	X13	Y13	Z13	X14	Y14	Z14	X15	Y15	Z15	X16	Y16	Z16	X17	Y17	Z17	X18	Y18	Z18	X19	Y19	Z19	

160	1.590				-636.45099	1563.33167	-922.93329	-624.82233	1345.36963	-912.78497	-725.07227	1503.91455	-729.95337	-441.09293	1287.11963	-851.32281	-804.38348	1296.12073	-872.84302	-627.95416	1182.62817	-724.46991				-385.09619	950.81226	-853.82635	-881.38757	950.94537	-888.19574	-417.49414	765.30927	-760.36328	-903.69879	773.60156	-750.45868	-541.68475	826.89301	-716.23981	-788.58002	818.69995	-757.40814	-630.72174	896.43567	-950.39374	-575.18011	424.04727	-652.91913	-769.74896	390.66107	-917.23224	-599.97974	91.75486	-646.64984				
161	1.600				-637.18506	1565.65234	-914.54779	-625.44025	1347.93823	-909.30170	-725.78021	1505.56384	-719.88409	-441.01682	1289.86401	-842.77808	-804.88965	1298.66833	-863.89618	-627.98315	1185.43066	-715.42218				-384.69214	952.77319	-844.20197	-881.44397	953.53741	-878.22784	-416.18137	767.71973	-750.54816	-904.24634	775.90009	-740.48761	-541.70135	829.40570	-706.59729				-631.83325	898.39374	-940.34900	-575.18262	424.34958	-647.76196	-774.38507	391.45389	-897.87103	-600.27856	90.59506	-646.29761				
162	1.610				-637.97614	1567.41650	-904.87823	-626.08893	1349.21326	-901.18457	-723.48090	1507.03296	-710.92169	-441.41272	1292.19250	-834.90808	-804.55499	1300.80261	-854.33405	-627.90527	1188.23352	-705.79102				-384.07736	955.12994	-836.14594	-881.51801	956.11725	-869.11371	-415.95667	770.27753	-741.14948	-903.75604	777.43964	-730.91632	-541.39691	831.09839	-697.35870				-632.66846	900.01141	-930.30695	-575.30536	424.79678	-643.26239	-779.03632	392.31519	-874.85767	-599.04150	91.69119	-644.15723				
163	1.620				-638.77948	1569.40063	-896.72156	-626.68005	1349.85364	-890.41040	-724.96295	1508.69824	-701.99396	-442.25888	1295.22253	-828.46936	-804.88916	1302.68420	-844.51068	-626.87122	1190.93579	-696.55939				-383.37329	958.22003	-828.77826	-881.65009	958.27435	-859.66388	-414.05652	773.36011	-731.82843	-904.12433	778.95551	-720.42719	-540.24542	833.02081	-687.89520	-786.74719	825.13684	-725.74292	-633.22705	901.79614	-920.91156	-575.34546	423.56329	-639.04144	-782.99750	391.47577	-854.68811	-599.97003	91.50294	-643.55353				
164	1.630				-639.50824	1570.74890	-887.78094	-626.39276	1351.55005	-875.67334	-724.42224	1510.31567	-693.09161	-442.03842	1296.88440	-819.90485	-805.07904	1304.77698	-836.16364	-626.79395	1193.74158	-686.98322				-383.16187	960.64630	-820.37787	-881.93060	959.93677	-849.94574	-413.21951	775.50299	-723.03876	-904.24774	780.64581	-711.38660	-540.33600	833.90417	-679.01013				-633.59833	902.96289	-910.63580	-574.94965	423.15430	-635.35706	-786.12238	390.48795	-834.04327	-599.82312	91.45572	-643.37653				
165	1.640				-640.37000	1571.74194	-879.03351	-627.36029	1353.61621	-873.68500	-724.63293	1511.37683	-683.69421	-442.63992	1298.79407	-810.80591	-805.58154	1306.18115	-826.38928	-627.24597	1195.79565	-678.01184				-382.61334	962.52356	-811.12476	-882.17316	961.51910	-840.26917	-411.69659	777.15240	-713.39337	-905.32642	782.66193	-701.67444	-540.08264	834.94196	-669.49304	-787.87726	831.02930	-706.50677	-633.77283	904.33392	-901.66626	-574.81024	422.44580	-631.50757	-789.69470	389.31967	-812.90839	-599.89429	91.36282	-643.37354				
166	1.650				-641.10736	1573.09241	-870.50220	-628.10229	1354.57031	-864.65808	-726.69366	1513.69189	-675.79077	-441.87906	1300.87988	-800.96240	-805.78772	1306.99634	-817.22534	-626.47772	1197.38721	-669.58325				-382.47217	964.32135	-802.83179	-882.50006	962.84198	-830.94708	-411.61038	779.66003	-703.96075	-905.93494	785.76233	-691.34369	-539.22955	835.47437	-661.44312	-784.72632	829.72534	-695.88098	-633.99768	904.96442	-892.47717	-574.59869	422.74063	-626.48157	-794.34656	389.82840	-792.29431	-599.43097	90.79316	-643.57373				
167	1.660				-641.82959	1574.26477	-862.27197	-627.28363	1356.39917	-850.89728	-725.05115	1514.78442	-666.03223	-443.48343	1301.72070	-793.41614	-806.55487	1307.81042	-807.58588	-626.52094	1198.77295	-659.89484				-381.92520	965.60925	-793.83807	-882.94849	963.49493	-820.96899	-409.72668	782.14185	-694.67151	-906.05347	786.50543	-679.56781	-538.62854	835.66840	-653.17047	-786.94354	832.52911	-686.67041	-634.07892	905.55103	-883.72852	-573.96570	422.84399	-624.36871	-796.50250	389.11676	-770.39734	-599.30750	90.69759	-643.20142				
168	1.670				-642.78674	1574.73145	-853.30731	-628.78491	1355.85620	-845.27441	-725.91528	1516.38489	-657.01678	-443.92804	1303.09753	-784.32654	-806.91553	1309.36914	-799.37305	-626.79980	1199.35181	-651.05841				-381.12854	967.26849	-786.14307	-883.45038	964.35907	-811.30292	-409.74738	783.61401	-684.31537	-905.70679	788.00574	-670.17444	-539.64215	835.41565	-644.12384	-785.83905	833.83105	-677.85028	-634.04736	906.36359	-875.42859	-573.01141	421.42093	-621.20544	-801.75421	391.28448	-749.11737	-598.88922	90.73830	-642.89081				
169	1.680				-643.44659	1576.04822	-844.84949	-629.79492	1358.11084	-837.69897	-724.81396	1517.63684	-647.89728	-444.63513	1304.50842	-775.99530	-807.43646	1310.13464	-790.12634	-627.21362	1200.09802	-642.19244				-380.64362	968.48242	-776.26904	-883.94824	965.04224	-801.65137	-408.09845	785.20813	-674.78583	-906.30389	788.74664	-658.82996	-538.83905	835.42181	-637.37646	-786.33929	833.27338	-666.57050	-634.18872	906.66162	-867.06274	-571.99817	421.65790	-618.81342	-804.75940	392.77612	-727.80267	-599.13354	90.42156	-642.51715				
170	1.690	-604.89893	1492.76807	-543.83215	-644.17078	1576.95972	-836.41956	-630.34723	1359.49280	-829.92676	-727.19281	1519.17517	-639.78931	-444.92700	1304.82092	-765.45898	-807.95477	1310.47217	-781.35596	-628.35785	1201.12781	-634.44775				-380.20697	969.88879	-766.67560	-884.59125	965.50488	-792.15033	-406.88370	786.76367	-664.78217	-906.54785	791.02185	-649.45245	-539.11487	835.30872	-628.80896	-788.66022	835.38446	-658.46136	-634.27972	907.43488	-858.95020	-571.17963	421.07001	-614.99884	-805.39642	393.76962	-706.26428	-598.96503	90.35545	-642.47491				
171	1.700	-604.65515	1493.22522	-536.44421	-644.82831	1577.89563	-827.74707	-631.15936	1359.60962	-820.16852	-725.04169	1519.46667	-630.41302	-445.48355	1306.84326	-758.74353	-808.58881	1311.22888	-772.52771	-627.02301	1202.03418	-624.96637				-379.27664	971.24268	-756.68408	-885.13409	966.25458	-782.92682	-406.29559	788.23486	-654.27789	-907.44379	792.42291	-638.69244	-538.26178	835.42474	-622.57434	-785.65991	835.75806	-647.92474	-634.64551	907.91949	-850.64294	-570.91351	420.64532	-613.31189	-809.18018	396.47464	-685.16406	-598.82214	90.65001	-641.42786				
172	1.710	-603.64893	1493.97693	-527.66077	-645.50513	1578.89819	-818.86255	-631.81885	1360.80896	-811.64398	-725.47229	1520.24060	-621.47491	-446.08322	1306.87463	-748.09406	-809.23499	1311.96216	-764.23413	-627.51544	1201.64355	-615.63055				-379.43164	972.15393	-747.45453	-885.81488	966.31757	-772.81445	-404.92722	789.82898	-644.92261	-906.84235	792.75244	-626.76288	-538.35022	836.11792	-614.83563				-635.34222	908.72931	-843.72516	-571.20984	420.68848	-609.17139	-812.89545	399.51184	-664.80157	-598.44287	90.76374	-641.07770				
173	1.720	-605.17181	1494.77844	-519.02441	-646.24530	1579.75916	-810.27338	-631.98926	1361.32642	-795.44293	-728.72424	1521.69934	-613.82977	-446.94037	1307.64636	-740.58801	-810.04065	1312.40833	-755.15552	-628.86035	1202.44788	-608.35785				-379.07114	973.92206	-737.61017	-886.28906	966.69537	-763.40845	-403.53354	791.67322	-634.12115	-907.10095	794.99451	-616.51025	-537.52155	836.66583	-607.29865				-636.05811	910.00519	-836.86786	-569.62762	420.34430	-607.40247	-814.37872	402.37589	-643.39856	-598.59167	90.67564	-640.38629				
174	1.730	-603.05701	1494.80457	-510.18573	-646.91718	1580.93738	-801.43079	-633.19702	1362.73596	-792.47968	-728.75372	1522.30518	-604.78571	-447.34891	1308.99341	-733.31183	-810.94702	1312.96765	-746.12762	-628.45361	1202.05212	-599.47522				-378.63892	975.04443	-727.03546	-886.80426	966.90381	-753.40271	-403.76587	792.25317	-623.77777	-905.98218	795.01520	-606.05554	-536.32068	838.27130	-599.18353				-636.88959	910.09589	-828.00549	-569.15863	420.31522	-605.14874	-815.69379	405.43576	-623.53430	-598.58374	90.66235	-640.37744				
175	1.740	-602.90283	1494.45618	-501.45306	-647.65222	1581.80615	-793.06067	-634.14703	1363.70630	-785.80951	-729.13422	1523.14636	-596.44452	-448.53485	1309.76782	-723.47803	-811.39673	1313.88928	-737.79456	-629.47375	1202.55896	-591.95001				-378.35187	976.16071	-716.89160	-887.21545	967.47089	-744.27655	-402.86829	794.38306	-613.24060	-906.46039	797.73792	-596.34967	-536.65137	839.78021	-590.91071	-790.78943	837.27972	-623.89594	-637.68915	911.49609	-821.24768	-568.89447	420.35797	-601.84039	-816.37604	409.34772	-603.74524	-598.20886	90.92842	-639.98914				
176	1.750	-604.70105	1496.04688	-493.47556	-648.32098	1582.65723	-784.13593	-634.43585	1363.80420	-769.98615	-725.38300	1522.48682	-585.93567	-448.85477	1310.62183	-715.34760	-812.00708	1314.12537	-728.81549	-629.31439	1203.15796	-584.53699				-378.73096	977.33185	-707.42157	-887.59174	967.69885	-733.94733	-402.35669	795.91235	-602.85583	-905.57660	798.27441	-584.93652	-537.46222	839.22949	-586.31891				-638.19116	911.63623	-812.93085	-569.08820	419.36707	-600.11389	-814.77637	412.28043	-584.07178	-598.15533	90.95177	-639.97327				
177	1.760	-603.54523	1495.64868	-485.19061	-648.94055	1583.57739	-775.14337				-726.81110	1523.42517	-577.14581	-449.63828	1311.79187	-708.98688	-812.32532	1314.78894	-720.20752	-629.35608	1203.83533	-576.25739				-378.96265	978.03992	-697.18579	-887.85040	968.41840	-725.27863	-402.82489	797.97339	-591.95044	-905.09576	799.60925	-574.54773	-537.24164	840.03363	-579.27313				-639.22192	913.04865	-805.34497	-568.18115	418.99640	-597.05035	-817.14368	417.48251	-565.51703	-597.76605	91.23026	-639.58319				
178	1.770	-603.16376	1495.89795	-476.16025	-649.68591	1584.10156	-766.36975				-726.07831	1523.53699	-568.11127	-450.50739	1312.28076	-701.19678	-813.40948	1315.79358	-712.32642	-629.96259	1204.54810	-568.42737	-636.38318	1365.87183	-760.45984	-378.39160	979.71777	-688.55029	-888.11133	968.89917	-715.49237	-402.23129	799.35126	-581.20880	-904.68286	801.38336	-563.90344	-536.24866	840.99780	-572.26892	-789.31989	842.90326	-601.60321	-640.16278	913.50244	-797.94092	-566.97144	419.03973	-596.04480	-816.81439	421.83191	-547.04303	-597.45758	91.20341	-639.46179				
179	1.780	-604.23315	1496.13147	-467.81393	-650.31836	1585.03979	-757.60541				-726.66113	1524.12158	-559.57416	-450.85144	1313.42249	-693.28784	-814.05127	1316.45862	-704.09857	-630.01270	1205.10693	-560.51129	-637.10767	1366.78674	-752.54700	-379.03030	980.47827	-677.65082	-888.41998	969.25848	-706.40845	-401.48166	801.71631	-570.73273	-903.30176	802.04730	-553.92047	-536.48944	841.37366	-565.58582				-641.04742	913.99121	-789.88007	-566.25952	419.36459	-593.04755	-816.43970	425.57266	-529.41010	-597.41602	91.20134	-639.44153				
180	1.790	-602.82367	1496.95801	-460.19934	-651.01996	1585.63647	-748.75513				-726.89166	1524.24866	-550.46869	-451.34381	1313.81628	-685.60223	-814.98035	1316.65674	-695.28674	-630.85138	1206.06592	-552.62695	-637.95959	1367.20215	-744.44141	-378.88382	981.34277	-668.76416	-888.62482	969.85657	-697.50140	-402.49747	803.29956	-559.54688	-904.00104	804.24261	-543.20056	-535.58105	841.69244	-557.12762				-642.00854	914.61639	-782.52124	-566.57886	418.88672	-591.04895	-813.20087	428.47894	-510.97229	-597.00195	91.33085	-639.10950				
181	1.800	-602.47412	1495.69202	-451.89819	-651.58026	1586.73169	-740.00861				-726.01788	1524.46143	-541.39941	-451.86783	1314.59302	-678.64886	-814.92676	1317.29822	-687.15442	-630.02032	1206.52539	-544.70734	-638.65625	1367.98914	-736.10913	-379.05148	982.27112	-659.96326	-888.85718	970.23267	-687.87891	-401.75369	804.99554	-549.30182	-903.44788	804.50446	-532.18555	-534.78912	841.62048	-551.01898	-788.06470	848.37726	-571.32831	-643.30145	914.90454	-774.67694	-566.09625	418.21155	-587.68024	-811.62384	432.45346	-493.70813	-597.18732	91.04606	-638.44214				
